<?xml version="1.0" encoding="UTF-8"?><svg id="Layer_1" xmlns="http://www.w3.org/2000/svg" viewBox="0 0 67.22 77.97"><defs><style>.cls-1{fill:#527cee;}</style></defs><path class="cls-1" d="M41.96,38.1l-.11.18c-.32.7-.22.87.21,1.56l14.54,18.28c.16.2.29.44.33.69.5,3.22-4.09,5.02-5.05,6.74-.44.78-.15,1.45-.59,2.23-.16.28-.95.98-1.66,1.47-.53.37-1.24.4-1.8.07l-1.26-.75c-.65-.39-1.49-.28-2.02.26-1.23,1.25-2.98,3.17-3.92,2.7-.68-.34-3.26-3.44-3.9-4.27-2.74-3.55-4.62-6.85-7.11-10.15-.66-.88-2-.87-2.65.02l-14.35,19.51c-.31.42-.8.67-1.33.67h0c-.46,0-.9-.2-1.21-.53-.71-.77-.51-1.12-.69-1.67-.3-.9-1-1.53-2.94-1.6h0c-.65-.02-1.24-.07-1.64-.55-1-1.2-2.04-3.81-2.23-4.28-.6-1.47.11-1.99.06-3.48-.04-1.23-1.74-2.03-1.58-3.07.14-.86,4.74-6.34,5.44-7.21,3.82-4.74,8.15-9.09,11.88-13.89.39-.51.45-1.2.16-1.76-3.66-7.17-8.03-14.25-10.69-21.87-.37-1.06-1.53-4.2-1.47-5.09.07-1.1,1.51-2.37,2.64-3.65.62-.7,1.68-.72,2.36-.09,3.07,2.85,1.98-1.55,3.59-3.02.85-.78,1.79-.8,2.79-.26,1.19.63,5.04,7.54,6.14,9.21,2.13,3.23,4.24,6.49,6.54,9.6.59.8,1.77.88,2.48.18L55.92,1.46c.59-.59,1.53-.64,2.18-.13,1.04.82,2.29,2.05,2.42,2.36.33.73.07,1.82.89,2.78.53.62,1.22.17,1.66.21.7.07.76.12,1.33.77l1.59,2.18h0c.65,1.07-.7,2.47-1.54,3.61"/></svg>