<?xml version="1.0" encoding="UTF-8"?><svg id="Layer_1" xmlns="http://www.w3.org/2000/svg" viewBox="0 0 656.96 113.47"><defs><style>.cls-1{fill:#0e2043;}</style></defs><path class="cls-1" d="M52.73,1.8c15.61-1.63,32,2.91,43.91,13.29,6.84,5.87,12.14,13.52,15.25,21.98,5.85,16,4.1,34.67-4.84,49.21-6.27,10.29-16.14,18.26-27.42,22.45-17.86,6.65-39.04,4.29-54.61-6.86-10.63-7.51-18.31-19.04-21.13-31.75-3.71-16.49-.02-34.73,10.68-47.96C23.81,10.53,37.99,3.21,52.73,1.8M54.04,7.16c-5.9.71-11.62,3-16.3,6.67-5.88,4.56-10.08,10.98-12.8,17.84-3.73,9.44-4.96,19.73-4.43,29.83.44,8.49,2.15,17.02,5.89,24.7,3.16,6.5,7.96,12.33,14.22,16.04,6.83,4.13,15.11,5.47,22.98,4.53,6.13-.72,12.09-3.12,16.88-7.03,5.79-4.66,9.9-11.14,12.55-18.02,3.75-9.8,4.85-20.48,4.11-30.9-.62-8.54-2.56-17.11-6.61-24.7-3.4-6.36-8.48-11.95-14.93-15.3-6.56-3.49-14.24-4.53-21.57-3.65Z"/><path class="cls-1" d="M120.36,3.26c15.72,0,31.44,0,47.16,0,0,1.3,0,2.6-.01,3.91-3.38.7-6.76,1.4-10.15,2.07-.85.22-1.87.35-2.4,1.13-.21,1.01.52,1.86,1.02,2.66,8.14,11.61,16.23,23.25,24.38,34.86.31.82,1.05.37,1.32-.2,8.36-11.68,16.74-23.35,25.08-35.04.71-.79,1.08-2.23-.24-2.61-3.56-1.24-7.31-1.92-10.95-2.88,0-1.3,0-2.6,0-3.91,12.63,0,25.27,0,37.91,0,0,1.31,0,2.61-.01,3.92-4.24,1.17-8.62,1.87-12.75,3.4-3.61,1.34-5.87,4.57-8.12,7.48-9.35,11.78-18.71,23.56-28.05,35.35,11.14,14.65,22.25,29.31,33.37,43.97,1.8,2.61,3.99,5.12,7.05,6.23,3.65,1.33,7.48,2.06,11.21,3.15,0,1.29,0,2.58.02,3.87-15.72.05-31.45,0-47.17.02,0-1.29,0-2.59-.01-3.87,3.96-.93,8.03-1.44,11.93-2.6,1.39-.45.66-2.03.03-2.83-7.72-10.92-15.48-21.81-23.22-32.71-1.32-1.8-2.51-3.68-3.95-5.38-8.32,11.13-16.33,22.52-24.53,33.75-1.22,1.81-2.71,3.44-3.71,5.39-.42,1.16,1.06,1.59,1.87,1.87,3.3.9,6.65,1.61,9.95,2.5,0,1.3,0,2.61-.05,3.91-12.62-.04-25.23-.02-37.84,0-.02-1.3-.02-2.6,0-3.91,3.57-.88,7.14-1.73,10.69-2.7,2.84-.77,5.47-2.33,7.35-4.63,10.92-13.62,21.74-27.32,32.68-40.91-10.02-13.43-20.16-26.77-30.23-40.17-2.24-2.89-4.22-6.31-7.76-7.77-3.81-1.54-7.89-2.29-11.84-3.42-.01-1.3-.01-2.6,0-3.91Z"/><path class="cls-1" d="M288.5,66.89c17.6,0,38.16-8.42,38.16-32.15,0-10.61-4.16-18.87-12.36-24.55-6.68-4.63-16.08-7.28-25.8-7.28h-31.99v107.65h13.82v-43.68h18.17ZM270.33,53.57V14.67h17.38c14.6,0,24.03,8.07,24.03,20.55,0,9.09-4.69,19.92-27.03,19.92h-14.38v-1.56Z"/><path class="cls-1" d="M374.22,64.36h.81l.47.66,29.24,41.45c1.81,2.56,4.76,4.09,7.9,4.09h12.31l-32.99-44.99-1.39-1.89,2.28-.54c4.91-1.17,11.91-3.75,17.36-9.4,5.12-5.3,7.71-12.12,7.71-20.26,0-9.88-4.18-17.99-12.08-23.44-6.56-4.53-15.61-7.12-24.81-7.12h-31.83v107.65h13.82v-46.21h11.21ZM363.01,51.04V14.67h17.22c13.62,0,22.76,7.75,22.76,19.28s-9.39,18.65-25.77,18.65h-14.22v-1.56Z"/><path class="cls-1" d="M493.37,1.01c-31.25,0-55.72,24.48-55.72,55.72s24.48,55.72,55.72,55.72,55.72-24.48,55.72-55.72S524.62,1.01,493.37,1.01ZM493.37,100.55c-23.26,0-40.8-18.83-40.8-43.81s17.54-43.81,40.8-43.81,40.8,18.83,40.8,43.81-17.54,43.81-40.8,43.81Z"/><path class="cls-1" d="M575.58,104.64l26.87-34.7.92-1.19.92,1.19,26.87,34.7c2.95,3.81,7.23,6,11.73,6h11.56l-41.21-53.21-.55-.72.55-.72,41.21-53.21h-11.56c-4.5,0-8.78,2.19-11.73,6l-26.87,34.7-.92,1.19-.92-1.19-26.87-34.7c-2.95-3.81-7.23-6-11.73-6h-11.56l41.21,53.21.55.72-.55.72-41.21,53.21h11.56c4.5,0,8.78-2.19,11.73-6Z"/></svg>